<?xml version="1.0" encoding="UTF-8" standalone="no"?>
<!DOCTYPE svg PUBLIC "-//W3C//DTD SVG 1.1//EN"
 "http://www.w3.org/Graphics/SVG/1.1/DTD/svg11.dtd">
<!-- Generated by graphviz version 2.47.0 (20210316.0004)
 -->
<!-- Title: dependencies Pages: 1 -->
<svg width="504pt" height="284pt"
 viewBox="0.00 0.00 504.00 284.00" xmlns="http://www.w3.org/2000/svg" xmlns:xlink="http://www.w3.org/1999/xlink">
<g id="graph0" class="graph" transform="scale(1 1) rotate(0) translate(4 280)">
<title>dependencies</title>
<polygon fill="white" stroke="transparent" points="-4,4 -4,-280 500,-280 500,4 -4,4"/>
<text text-anchor="start" x="227.01" y="-42.4" font-family="Times-12" font-weight="bold" font-size="14.00">Legend</text>
<polygon fill="#ffffb3" stroke="transparent" points="14,-10 14,-30 34,-30 34,-10 14,-10"/>
<text text-anchor="start" x="37.63" y="-15.4" font-family="Times-12" font-size="14.00"> &#160;Declarations</text>
<polygon fill="#8dd3c7" stroke="transparent" points="127,-10 127,-30 147,-30 147,-10 127,-10"/>
<text text-anchor="start" x="150.73" y="-15.4" font-family="Times-12" font-size="14.00"> &#160;Module</text>
<polygon fill="#80b1d3" stroke="transparent" points="213,-10 213,-30 233,-30 233,-10 213,-10"/>
<text text-anchor="start" x="236.78" y="-15.4" font-family="Times-12" font-size="14.00"> &#160;Bootstrap</text>
<polygon fill="#fdb462" stroke="transparent" points="310,-10 310,-30 330,-30 330,-10 310,-10"/>
<text text-anchor="start" x="333.67" y="-15.4" font-family="Times-12" font-size="14.00"> &#160;Providers</text>
<polygon fill="#fb8072" stroke="transparent" points="406,-10 406,-30 426,-30 426,-10 406,-10"/>
<text text-anchor="start" x="429.73" y="-15.4" font-family="Times-12" font-size="14.00"> &#160;Exports</text>
<g id="clust1" class="cluster">
<title>cluster_ProveedorModule</title>
<polygon fill="none" stroke="black" stroke-dasharray="1,5" points="96,-70 96,-268 400,-268 400,-70 96,-70"/>
</g>
<g id="clust6" class="cluster">
<title>cluster_ProveedorModule_providers</title>
<polygon fill="none" stroke="black" points="216,-78 216,-130 392,-130 392,-78 216,-78"/>
</g>
<g id="clust4" class="cluster">
<title>cluster_ProveedorModule_exports</title>
<polygon fill="none" stroke="black" points="170,-208 170,-260 306,-260 306,-208 170,-208"/>
</g>
<g id="clust3" class="cluster">
<title>cluster_ProveedorModule_imports</title>
<polygon fill="none" stroke="black" points="104,-78 104,-130 208,-130 208,-78 104,-78"/>
</g>
<!-- AuthModule -->
<g id="node1" class="node">
<title>AuthModule</title>
<polygon fill="#8dd3c7" stroke="black" points="199.55,-122 196.55,-126 175.55,-126 172.55,-122 112.45,-122 112.45,-86 199.55,-86 199.55,-122"/>
<text text-anchor="middle" x="156" y="-99.8" font-family="Times,serif" font-size="14.00">AuthModule</text>
</g>
<!-- ProveedorModule -->
<g id="node2" class="node">
<title>ProveedorModule</title>
<polygon fill="#8dd3c7" stroke="black" points="296.58,-187 293.58,-191 272.58,-191 269.58,-187 179.42,-187 179.42,-151 296.58,-151 296.58,-187"/>
<text text-anchor="middle" x="238" y="-164.8" font-family="Times,serif" font-size="14.00">ProveedorModule</text>
</g>
<!-- AuthModule&#45;&gt;ProveedorModule -->
<g id="edge1" class="edge">
<title>AuthModule&#45;&gt;ProveedorModule</title>
<path fill="none" stroke="black" d="M189.62,-122.11C189.62,-122.11 189.62,-140.99 189.62,-140.99"/>
<polygon fill="black" stroke="black" points="186.12,-140.99 189.62,-150.99 193.12,-140.99 186.12,-140.99"/>
</g>
<!-- ProveedorService  -->
<g id="node3" class="node">
<title>ProveedorService </title>
<polygon fill="#fb8072" stroke="black" points="297.51,-252 178.49,-252 178.49,-216 297.51,-216 297.51,-252"/>
<text text-anchor="middle" x="238" y="-229.8" font-family="Times,serif" font-size="14.00">ProveedorService </text>
</g>
<!-- ProveedorModule&#45;&gt;ProveedorService  -->
<g id="edge2" class="edge">
<title>ProveedorModule&#45;&gt;ProveedorService </title>
<path fill="none" stroke="black" stroke-dasharray="5,2" d="M238,-187.11C238,-187.11 238,-205.99 238,-205.99"/>
<polygon fill="black" stroke="black" points="234.5,-205.99 238,-215.99 241.5,-205.99 234.5,-205.99"/>
</g>
<!-- ProveedorService -->
<g id="node4" class="node">
<title>ProveedorService</title>
<ellipse fill="#fdb462" stroke="black" cx="304" cy="-104" rx="79.85" ry="18"/>
<text text-anchor="middle" x="304" y="-99.8" font-family="Times,serif" font-size="14.00">ProveedorService</text>
</g>
<!-- ProveedorService&#45;&gt;ProveedorModule -->
<g id="edge3" class="edge">
<title>ProveedorService&#45;&gt;ProveedorModule</title>
<path fill="none" stroke="black" d="M260.43,-119.08C260.43,-119.08 260.43,-140.76 260.43,-140.76"/>
<polygon fill="black" stroke="black" points="256.93,-140.76 260.43,-150.76 263.93,-140.76 256.93,-140.76"/>
</g>
</g>
</svg>
