<?xml version="1.0" encoding="UTF-8" standalone="no"?>
<!DOCTYPE svg PUBLIC "-//W3C//DTD SVG 1.1//EN"
 "http://www.w3.org/Graphics/SVG/1.1/DTD/svg11.dtd">
<!-- Generated by graphviz version 2.47.0 (20210316.0004)
 -->
<!-- Title: dependencies Pages: 1 -->
<svg width="724pt" height="284pt"
 viewBox="0.00 0.00 724.00 284.00" xmlns="http://www.w3.org/2000/svg" xmlns:xlink="http://www.w3.org/1999/xlink">
<g id="graph0" class="graph" transform="scale(1 1) rotate(0) translate(4 280)">
<title>dependencies</title>
<polygon fill="white" stroke="transparent" points="-4,4 -4,-280 720,-280 720,4 -4,4"/>
<text text-anchor="start" x="337.01" y="-42.4" font-family="Times-12" font-weight="bold" font-size="14.00">Legend</text>
<polygon fill="#ffffb3" stroke="transparent" points="124,-10 124,-30 144,-30 144,-10 124,-10"/>
<text text-anchor="start" x="147.63" y="-15.4" font-family="Times-12" font-size="14.00"> &#160;Declarations</text>
<polygon fill="#8dd3c7" stroke="transparent" points="237,-10 237,-30 257,-30 257,-10 237,-10"/>
<text text-anchor="start" x="260.73" y="-15.4" font-family="Times-12" font-size="14.00"> &#160;Module</text>
<polygon fill="#80b1d3" stroke="transparent" points="323,-10 323,-30 343,-30 343,-10 323,-10"/>
<text text-anchor="start" x="346.78" y="-15.4" font-family="Times-12" font-size="14.00"> &#160;Bootstrap</text>
<polygon fill="#fdb462" stroke="transparent" points="420,-10 420,-30 440,-30 440,-10 420,-10"/>
<text text-anchor="start" x="443.67" y="-15.4" font-family="Times-12" font-size="14.00"> &#160;Providers</text>
<polygon fill="#fb8072" stroke="transparent" points="516,-10 516,-30 536,-30 536,-10 516,-10"/>
<text text-anchor="start" x="539.73" y="-15.4" font-family="Times-12" font-size="14.00"> &#160;Exports</text>
<g id="clust1" class="cluster">
<title>cluster_AuthModule</title>
<polygon fill="none" stroke="black" stroke-dasharray="1,5" points="8,-70 8,-268 708,-268 708,-70 8,-70"/>
</g>
<g id="clust6" class="cluster">
<title>cluster_AuthModule_providers</title>
<polygon fill="none" stroke="black" points="434,-78 434,-130 700,-130 700,-78 434,-78"/>
</g>
<g id="clust3" class="cluster">
<title>cluster_AuthModule_imports</title>
<polygon fill="none" stroke="black" points="16,-78 16,-130 426,-130 426,-78 16,-78"/>
</g>
<g id="clust4" class="cluster">
<title>cluster_AuthModule_exports</title>
<polygon fill="none" stroke="black" points="294,-208 294,-260 400,-260 400,-208 294,-208"/>
</g>
<!-- AdministradorModule -->
<g id="node1" class="node">
<title>AdministradorModule</title>
<polygon fill="#8dd3c7" stroke="black" points="417.7,-122 414.7,-126 393.7,-126 390.7,-122 276.3,-122 276.3,-86 417.7,-86 417.7,-122"/>
<text text-anchor="middle" x="347" y="-99.8" font-family="Times,serif" font-size="14.00">AdministradorModule</text>
</g>
<!-- AuthModule -->
<g id="node4" class="node">
<title>AuthModule</title>
<polygon fill="#8dd3c7" stroke="black" points="390.55,-187 387.55,-191 366.55,-191 363.55,-187 303.45,-187 303.45,-151 390.55,-151 390.55,-187"/>
<text text-anchor="middle" x="347" y="-164.8" font-family="Times,serif" font-size="14.00">AuthModule</text>
</g>
<!-- AdministradorModule&#45;&gt;AuthModule -->
<g id="edge1" class="edge">
<title>AdministradorModule&#45;&gt;AuthModule</title>
<path fill="none" stroke="black" d="M347,-122.11C347,-122.11 347,-140.99 347,-140.99"/>
<polygon fill="black" stroke="black" points="343.5,-140.99 347,-150.99 350.5,-140.99 343.5,-140.99"/>
</g>
<!-- ClienteModule -->
<g id="node2" class="node">
<title>ClienteModule</title>
<polygon fill="#8dd3c7" stroke="black" points="257.99,-122 254.99,-126 233.99,-126 230.99,-122 158.01,-122 158.01,-86 257.99,-86 257.99,-122"/>
<text text-anchor="middle" x="208" y="-99.8" font-family="Times,serif" font-size="14.00">ClienteModule</text>
</g>
<!-- ClienteModule&#45;&gt;AuthModule -->
<g id="edge2" class="edge">
<title>ClienteModule&#45;&gt;AuthModule</title>
<path fill="none" stroke="black" d="M208,-122.02C208,-139.37 208,-163 208,-163 208,-163 293.4,-163 293.4,-163"/>
<polygon fill="black" stroke="black" points="293.4,-166.5 303.4,-163 293.4,-159.5 293.4,-166.5"/>
</g>
<!-- EmpleadoModule -->
<g id="node3" class="node">
<title>EmpleadoModule</title>
<polygon fill="#8dd3c7" stroke="black" points="140.31,-122 137.31,-126 116.31,-126 113.31,-122 23.69,-122 23.69,-86 140.31,-86 140.31,-122"/>
<text text-anchor="middle" x="82" y="-99.8" font-family="Times,serif" font-size="14.00">EmpleadoModule</text>
</g>
<!-- EmpleadoModule&#45;&gt;AuthModule -->
<g id="edge3" class="edge">
<title>EmpleadoModule&#45;&gt;AuthModule</title>
<path fill="none" stroke="black" d="M82,-122.28C82,-143.32 82,-175 82,-175 82,-175 293.24,-175 293.24,-175"/>
<polygon fill="black" stroke="black" points="293.24,-178.5 303.24,-175 293.24,-171.5 293.24,-178.5"/>
</g>
<!-- AuthService  -->
<g id="node5" class="node">
<title>AuthService </title>
<polygon fill="#fb8072" stroke="black" points="391.98,-252 302.02,-252 302.02,-216 391.98,-216 391.98,-252"/>
<text text-anchor="middle" x="347" y="-229.8" font-family="Times,serif" font-size="14.00">AuthService </text>
</g>
<!-- AuthModule&#45;&gt;AuthService  -->
<g id="edge4" class="edge">
<title>AuthModule&#45;&gt;AuthService </title>
<path fill="none" stroke="black" stroke-dasharray="5,2" d="M347,-187.11C347,-187.11 347,-205.99 347,-205.99"/>
<polygon fill="black" stroke="black" points="343.5,-205.99 347,-215.99 350.5,-205.99 343.5,-205.99"/>
</g>
<!-- AuthService -->
<g id="node6" class="node">
<title>AuthService</title>
<ellipse fill="#fdb462" stroke="black" cx="633" cy="-104" rx="59.11" ry="18"/>
<text text-anchor="middle" x="633" y="-99.8" font-family="Times,serif" font-size="14.00">AuthService</text>
</g>
<!-- AuthService&#45;&gt;AuthModule -->
<g id="edge5" class="edge">
<title>AuthService&#45;&gt;AuthModule</title>
<path fill="none" stroke="black" d="M633,-122.28C633,-143.32 633,-175 633,-175 633,-175 400.75,-175 400.75,-175"/>
<polygon fill="black" stroke="black" points="400.75,-171.5 390.75,-175 400.75,-178.5 400.75,-171.5"/>
</g>
<!-- JwtStrategy -->
<g id="node7" class="node">
<title>JwtStrategy</title>
<ellipse fill="#fdb462" stroke="black" cx="499" cy="-104" rx="56.76" ry="18"/>
<text text-anchor="middle" x="499" y="-99.8" font-family="Times,serif" font-size="14.00">JwtStrategy</text>
</g>
<!-- JwtStrategy&#45;&gt;AuthModule -->
<g id="edge6" class="edge">
<title>JwtStrategy&#45;&gt;AuthModule</title>
<path fill="none" stroke="black" d="M499,-122.02C499,-139.37 499,-163 499,-163 499,-163 400.56,-163 400.56,-163"/>
<polygon fill="black" stroke="black" points="400.56,-159.5 390.56,-163 400.56,-166.5 400.56,-159.5"/>
</g>
</g>
</svg>
