<?xml version="1.0" encoding="UTF-8" standalone="no"?>
<!DOCTYPE svg PUBLIC "-//W3C//DTD SVG 1.1//EN"
 "http://www.w3.org/Graphics/SVG/1.1/DTD/svg11.dtd">
<!-- Generated by graphviz version 2.47.0 (20210316.0004)
 -->
<!-- Title: dependencies Pages: 1 -->
<svg width="1605pt" height="211pt"
 viewBox="0.00 0.00 1605.00 211.00" xmlns="http://www.w3.org/2000/svg" xmlns:xlink="http://www.w3.org/1999/xlink">
<g id="graph0" class="graph" transform="scale(1 1) rotate(0) translate(4 207)">
<title>dependencies</title>
<polygon fill="white" stroke="transparent" points="-4,4 -4,-207 1601,-207 1601,4 -4,4"/>
<text text-anchor="start" x="777.51" y="-42.4" font-family="Times-12" font-weight="bold" font-size="14.00">Legend</text>
<polygon fill="#ffffb3" stroke="transparent" points="564.5,-10 564.5,-30 584.5,-30 584.5,-10 564.5,-10"/>
<text text-anchor="start" x="588.13" y="-15.4" font-family="Times-12" font-size="14.00"> &#160;Declarations</text>
<polygon fill="#8dd3c7" stroke="transparent" points="677.5,-10 677.5,-30 697.5,-30 697.5,-10 677.5,-10"/>
<text text-anchor="start" x="701.23" y="-15.4" font-family="Times-12" font-size="14.00"> &#160;Module</text>
<polygon fill="#80b1d3" stroke="transparent" points="763.5,-10 763.5,-30 783.5,-30 783.5,-10 763.5,-10"/>
<text text-anchor="start" x="787.28" y="-15.4" font-family="Times-12" font-size="14.00"> &#160;Bootstrap</text>
<polygon fill="#fdb462" stroke="transparent" points="860.5,-10 860.5,-30 880.5,-30 880.5,-10 860.5,-10"/>
<text text-anchor="start" x="884.17" y="-15.4" font-family="Times-12" font-size="14.00"> &#160;Providers</text>
<polygon fill="#fb8072" stroke="transparent" points="956.5,-10 956.5,-30 976.5,-30 976.5,-10 956.5,-10"/>
<text text-anchor="start" x="980.23" y="-15.4" font-family="Times-12" font-size="14.00"> &#160;Exports</text>
<g id="clust1" class="cluster">
<title>cluster_AppModule</title>
<polygon fill="none" stroke="black" stroke-dasharray="1,5" points="8,-70 8,-195 1589,-195 1589,-70 8,-70"/>
</g>
<g id="clust6" class="cluster">
<title>cluster_AppModule_providers</title>
<polygon fill="none" stroke="black" points="1451,-78 1451,-130 1581,-130 1581,-78 1451,-78"/>
</g>
<g id="clust3" class="cluster">
<title>cluster_AppModule_imports</title>
<polygon fill="none" stroke="black" points="16,-78 16,-130 1443,-130 1443,-78 16,-78"/>
</g>
<!-- AdministradorModule -->
<g id="node1" class="node">
<title>AdministradorModule</title>
<polygon fill="#8dd3c7" stroke="black" points="1434.7,-122 1431.7,-126 1410.7,-126 1407.7,-122 1293.3,-122 1293.3,-86 1434.7,-86 1434.7,-122"/>
<text text-anchor="middle" x="1364" y="-99.8" font-family="Times,serif" font-size="14.00">AdministradorModule</text>
</g>
<!-- AppModule -->
<g id="node12" class="node">
<title>AppModule</title>
<polygon fill="#8dd3c7" stroke="black" points="807.66,-187 804.66,-191 783.66,-191 780.66,-187 724.34,-187 724.34,-151 807.66,-151 807.66,-187"/>
<text text-anchor="middle" x="766" y="-164.8" font-family="Times,serif" font-size="14.00">AppModule</text>
</g>
<!-- AdministradorModule&#45;&gt;AppModule -->
<g id="edge1" class="edge">
<title>AdministradorModule&#45;&gt;AppModule</title>
<path fill="none" stroke="black" d="M1364,-122.28C1364,-143.32 1364,-175 1364,-175 1364,-175 818.05,-175 818.05,-175"/>
<polygon fill="black" stroke="black" points="818.05,-171.5 808.05,-175 818.05,-178.5 818.05,-171.5"/>
</g>
<!-- AuthModule -->
<g id="node2" class="node">
<title>AuthModule</title>
<polygon fill="#8dd3c7" stroke="black" points="1275.55,-122 1272.55,-126 1251.55,-126 1248.55,-122 1188.45,-122 1188.45,-86 1275.55,-86 1275.55,-122"/>
<text text-anchor="middle" x="1232" y="-99.8" font-family="Times,serif" font-size="14.00">AuthModule</text>
</g>
<!-- AuthModule&#45;&gt;AppModule -->
<g id="edge2" class="edge">
<title>AuthModule&#45;&gt;AppModule</title>
<path fill="none" stroke="black" d="M1232,-122.11C1232,-141.34 1232,-169 1232,-169 1232,-169 817.76,-169 817.76,-169"/>
<polygon fill="black" stroke="black" points="817.76,-165.5 807.76,-169 817.76,-172.5 817.76,-165.5"/>
</g>
<!-- ClienteModule -->
<g id="node3" class="node">
<title>ClienteModule</title>
<polygon fill="#8dd3c7" stroke="black" points="1169.99,-122 1166.99,-126 1145.99,-126 1142.99,-122 1070.01,-122 1070.01,-86 1169.99,-86 1169.99,-122"/>
<text text-anchor="middle" x="1120" y="-99.8" font-family="Times,serif" font-size="14.00">ClienteModule</text>
</g>
<!-- ClienteModule&#45;&gt;AppModule -->
<g id="edge3" class="edge">
<title>ClienteModule&#45;&gt;AppModule</title>
<path fill="none" stroke="black" d="M1120,-122.02C1120,-139.37 1120,-163 1120,-163 1120,-163 818,-163 818,-163"/>
<polygon fill="black" stroke="black" points="818,-159.5 808,-163 818,-166.5 818,-159.5"/>
</g>
<!-- DetalleFacturaModule -->
<g id="node4" class="node">
<title>DetalleFacturaModule</title>
<polygon fill="#8dd3c7" stroke="black" points="1051.95,-122 1048.95,-126 1027.95,-126 1024.95,-122 910.05,-122 910.05,-86 1051.95,-86 1051.95,-122"/>
<text text-anchor="middle" x="981" y="-99.8" font-family="Times,serif" font-size="14.00">DetalleFacturaModule</text>
</g>
<!-- DetalleFacturaModule&#45;&gt;AppModule -->
<g id="edge4" class="edge">
<title>DetalleFacturaModule&#45;&gt;AppModule</title>
<path fill="none" stroke="black" d="M981,-122.24C981,-137.57 981,-157 981,-157 981,-157 817.71,-157 817.71,-157"/>
<polygon fill="black" stroke="black" points="817.71,-153.5 807.71,-157 817.71,-160.5 817.71,-153.5"/>
</g>
<!-- EmpleadoModule -->
<g id="node5" class="node">
<title>EmpleadoModule</title>
<polygon fill="#8dd3c7" stroke="black" points="892.31,-122 889.31,-126 868.31,-126 865.31,-122 775.69,-122 775.69,-86 892.31,-86 892.31,-122"/>
<text text-anchor="middle" x="834" y="-99.8" font-family="Times,serif" font-size="14.00">EmpleadoModule</text>
</g>
<!-- EmpleadoModule&#45;&gt;AppModule -->
<g id="edge5" class="edge">
<title>EmpleadoModule&#45;&gt;AppModule</title>
<path fill="none" stroke="black" d="M791.84,-122.11C791.84,-122.11 791.84,-140.99 791.84,-140.99"/>
<polygon fill="black" stroke="black" points="788.34,-140.99 791.84,-150.99 795.34,-140.99 788.34,-140.99"/>
</g>
<!-- InventarioModule -->
<g id="node6" class="node">
<title>InventarioModule</title>
<polygon fill="#8dd3c7" stroke="black" points="757.58,-122 754.58,-126 733.58,-126 730.58,-122 640.42,-122 640.42,-86 757.58,-86 757.58,-122"/>
<text text-anchor="middle" x="699" y="-99.8" font-family="Times,serif" font-size="14.00">InventarioModule</text>
</g>
<!-- InventarioModule&#45;&gt;AppModule -->
<g id="edge6" class="edge">
<title>InventarioModule&#45;&gt;AppModule</title>
<path fill="none" stroke="black" d="M740.86,-122.11C740.86,-122.11 740.86,-140.99 740.86,-140.99"/>
<polygon fill="black" stroke="black" points="737.36,-140.99 740.86,-150.99 744.36,-140.99 737.36,-140.99"/>
</g>
<!-- MascotaModule -->
<g id="node7" class="node">
<title>MascotaModule</title>
<polygon fill="#8dd3c7" stroke="black" points="622.47,-122 619.47,-126 598.47,-126 595.47,-122 515.53,-122 515.53,-86 622.47,-86 622.47,-122"/>
<text text-anchor="middle" x="569" y="-99.8" font-family="Times,serif" font-size="14.00">MascotaModule</text>
</g>
<!-- MascotaModule&#45;&gt;AppModule -->
<g id="edge7" class="edge">
<title>MascotaModule&#45;&gt;AppModule</title>
<path fill="none" stroke="black" d="M569,-122.24C569,-137.57 569,-157 569,-157 569,-157 714.22,-157 714.22,-157"/>
<polygon fill="black" stroke="black" points="714.22,-160.5 724.22,-157 714.22,-153.5 714.22,-160.5"/>
</g>
<!-- ProductoModule -->
<g id="node8" class="node">
<title>ProductoModule</title>
<polygon fill="#8dd3c7" stroke="black" points="497.1,-122 494.1,-126 473.1,-126 470.1,-122 386.9,-122 386.9,-86 497.1,-86 497.1,-122"/>
<text text-anchor="middle" x="442" y="-99.8" font-family="Times,serif" font-size="14.00">ProductoModule</text>
</g>
<!-- ProductoModule&#45;&gt;AppModule -->
<g id="edge8" class="edge">
<title>ProductoModule&#45;&gt;AppModule</title>
<path fill="none" stroke="black" d="M442,-122.02C442,-139.37 442,-163 442,-163 442,-163 714.31,-163 714.31,-163"/>
<polygon fill="black" stroke="black" points="714.31,-166.5 724.31,-163 714.31,-159.5 714.31,-166.5"/>
</g>
<!-- ProveedorModule -->
<g id="node9" class="node">
<title>ProveedorModule</title>
<polygon fill="#8dd3c7" stroke="black" points="368.58,-122 365.58,-126 344.58,-126 341.58,-122 251.42,-122 251.42,-86 368.58,-86 368.58,-122"/>
<text text-anchor="middle" x="310" y="-99.8" font-family="Times,serif" font-size="14.00">ProveedorModule</text>
</g>
<!-- ProveedorModule&#45;&gt;AppModule -->
<g id="edge9" class="edge">
<title>ProveedorModule&#45;&gt;AppModule</title>
<path fill="none" stroke="black" d="M310,-122.11C310,-141.34 310,-169 310,-169 310,-169 714.32,-169 714.32,-169"/>
<polygon fill="black" stroke="black" points="714.32,-172.5 724.32,-169 714.32,-165.5 714.32,-172.5"/>
</g>
<!-- TiendaModule -->
<g id="node10" class="node">
<title>TiendaModule</title>
<polygon fill="#8dd3c7" stroke="black" points="233.42,-122 230.42,-126 209.42,-126 206.42,-122 134.58,-122 134.58,-86 233.42,-86 233.42,-122"/>
<text text-anchor="middle" x="184" y="-99.8" font-family="Times,serif" font-size="14.00">TiendaModule</text>
</g>
<!-- TiendaModule&#45;&gt;AppModule -->
<g id="edge10" class="edge">
<title>TiendaModule&#45;&gt;AppModule</title>
<path fill="none" stroke="black" d="M184,-122.28C184,-143.32 184,-175 184,-175 184,-175 714.14,-175 714.14,-175"/>
<polygon fill="black" stroke="black" points="714.14,-178.5 724.14,-175 714.14,-171.5 714.14,-178.5"/>
</g>
<!-- VentaModule -->
<g id="node11" class="node">
<title>VentaModule</title>
<polygon fill="#8dd3c7" stroke="black" points="116.48,-122 113.48,-126 92.48,-126 89.48,-122 23.52,-122 23.52,-86 116.48,-86 116.48,-122"/>
<text text-anchor="middle" x="70" y="-99.8" font-family="Times,serif" font-size="14.00">VentaModule</text>
</g>
<!-- VentaModule&#45;&gt;AppModule -->
<g id="edge11" class="edge">
<title>VentaModule&#45;&gt;AppModule</title>
<path fill="none" stroke="black" d="M70,-122.09C70,-145.13 70,-182 70,-182 70,-182 714.29,-182 714.29,-182"/>
<polygon fill="black" stroke="black" points="714.29,-185.5 724.29,-182 714.29,-178.5 714.29,-185.5"/>
</g>
<!-- AppService -->
<g id="node13" class="node">
<title>AppService</title>
<ellipse fill="#fdb462" stroke="black" cx="1516" cy="-104" rx="56.74" ry="18"/>
<text text-anchor="middle" x="1516" y="-99.8" font-family="Times,serif" font-size="14.00">AppService</text>
</g>
<!-- AppService&#45;&gt;AppModule -->
<g id="edge12" class="edge">
<title>AppService&#45;&gt;AppModule</title>
<path fill="none" stroke="black" d="M1516,-122.09C1516,-145.13 1516,-182 1516,-182 1516,-182 817.66,-182 817.66,-182"/>
<polygon fill="black" stroke="black" points="817.66,-178.5 807.66,-182 817.66,-185.5 817.66,-178.5"/>
</g>
</g>
</svg>
